<svg width="70" height="70" viewBox="0 0 70 70" fill="none" xmlns="http://www.w3.org/2000/svg">
<path d="M70 35C70 54.33 54.33 70 35 70C15.67 70 0 54.33 0 35C0 15.67 15.67 0 35 0C54.33 0 70 15.67 70 35Z" fill="white"/>
<path d="M23.0928 43.0276C23.52 47.8396 27.4602 51.2544 33.4585 51.6961V55.2062H36.4693V51.6961C43.0218 51.1794 47.0862 47.5452 47.0862 42.1703C47.0862 37.5806 44.3526 34.925 38.5534 33.4297L36.4693 32.8899V21.9151C39.708 22.2326 41.8932 23.9761 42.4445 26.5798H46.6878C46.2086 21.9612 42.2425 18.6474 36.4693 18.2808V14.7938H33.4585V18.353C27.8614 19.0169 24.0194 22.6021 24.0194 27.4631C24.0194 31.6602 26.8078 34.6305 31.7006 35.8833L33.4614 36.3509V47.9868C30.1447 47.4961 27.8614 45.6775 27.3101 43.0276H23.0928ZM32.8812 31.9546C29.8705 31.1955 28.2627 29.5732 28.2627 27.2899C28.2627 24.565 30.2948 22.553 33.4585 22.0132V32.1019L32.8812 31.9546ZM37.4738 37.3584C41.1889 38.2907 42.8198 39.8379 42.8198 42.4648C42.8198 45.6314 40.4355 47.7415 36.4693 48.0619V37.1072L37.4738 37.3584Z" fill="#820AD1"/>
</svg>
