<svg width="70" height="70" viewBox="0 0 70 70" fill="none" xmlns="http://www.w3.org/2000/svg">
<path d="M25.0112 24.6057C25.0112 18.9678 29.5824 14.3974 35.2196 14.3974C40.8582 14.3974 45.4294 18.9678 45.4294 24.6057C45.4294 30.2437 40.8582 34.8148 35.2196 34.8148C29.5824 34.8148 25.0112 30.2437 25.0112 24.6057Z" fill="white"/>
<mask id="mask0_41_4" style="mask-type:luminance" maskUnits="userSpaceOnUse" x="17" y="34" width="37" height="22">
<path d="M17.478 34.3467H53.0132V55.5982H17.478V34.3467Z" fill="white"/>
</mask>
<g mask="url(#mask0_41_4)">
<path d="M52.7652 50.0165L51.3098 44.4048C50.1227 39.8329 46.9209 36.2061 42.8041 34.3751C40.7099 36.0041 38.0791 36.9768 35.2193 36.9768C32.3609 36.9768 29.7301 36.0041 27.6352 34.3751C23.5183 36.2061 20.3166 39.8329 19.1302 44.4048L17.6748 50.0165C16.9412 52.8413 19.0741 55.5975 21.9929 55.5975H48.4471C51.3659 55.5975 53.498 52.8413 52.7652 50.0165Z" fill="white"/>
</g>
<path d="M6.46704 23.2984C6.46704 18.7855 10.1253 15.1273 14.6381 15.1273C19.1509 15.1273 22.8099 18.7855 22.8099 23.2984C22.8099 27.8112 19.1509 31.4694 14.6381 31.4694C10.1253 31.4694 6.46704 27.8112 6.46704 23.2984Z" fill="white"/>
<path d="M17.2578 44.3297C18.3931 39.9554 21.0998 36.3198 24.6778 33.9617C23.5629 32.7585 22.2132 31.7866 20.709 31.1179C19.0319 32.4217 16.9268 33.2004 14.6379 33.2004C12.3491 33.2004 10.244 32.4217 8.56688 31.1179C5.27251 32.5828 2.70949 35.4856 1.76011 39.146L0.594174 43.637C0.00792444 45.8981 1.7149 48.1046 4.05042 48.1046H16.2785L17.2578 44.3297Z" fill="white"/>
<path d="M64.023 23.2984C64.023 18.7855 60.3648 15.1273 55.8519 15.1273C51.3391 15.1273 47.6802 18.7855 47.6802 23.2984C47.6802 27.8112 51.3391 31.4694 55.8519 31.4694C60.3648 31.4694 64.023 27.8112 64.023 23.2984Z" fill="white"/>
<mask id="mask1_41_4" style="mask-type:luminance" maskUnits="userSpaceOnUse" x="45" y="31" width="25" height="18">
<path d="M45.8105 31.0421H69.9999V48.16H45.8105V31.0421Z" fill="white"/>
</mask>
<g mask="url(#mask1_41_4)">
<path d="M53.2313 44.3297C52.0974 39.9554 49.39 36.3198 45.812 33.9617C46.9269 32.7585 48.2766 31.7866 49.7809 31.1179C51.4579 32.4217 53.5631 33.2004 55.8519 33.2004C58.1408 33.2004 60.2459 32.4217 61.9229 31.1179C65.2173 32.5828 67.7803 35.4856 68.7304 39.146L69.8957 43.637C70.4826 45.8981 68.7749 48.1046 66.4387 48.1046H54.212L53.2313 44.3297Z" fill="white"/>
</g>
</svg>
