<svg width="74" height="70" viewBox="0 0 74 70" fill="none" xmlns="http://www.w3.org/2000/svg">
<path d="M15.5938 2.64872e-05C15.49 -0.000928259 15.3877 0.0239416 15.296 0.0723956C15.2042 0.12085 15.126 0.191365 15.0683 0.277588C15.0106 0.363811 14.9753 0.463032 14.9655 0.566312C14.9557 0.669591 14.9718 0.773683 15.0122 0.869208L15.3718 1.71807L21.7343 16.5536C21.7776 16.6545 21.8466 16.7422 21.9345 16.808C22.0224 16.8737 22.1261 16.9152 22.2351 16.9282C22.3441 16.9412 22.4546 16.9252 22.5555 16.882C22.6564 16.8387 22.7441 16.7697 22.8099 16.6817L34.5532 1.00052C34.6229 0.907621 34.6653 0.797152 34.6757 0.681493C34.6862 0.565835 34.6642 0.449558 34.6122 0.34569C34.5603 0.241822 34.4805 0.154468 34.3817 0.0934161C34.2829 0.0323642 34.1691 2.64872e-05 34.0529 2.64872e-05H15.5938ZM62.2122 4.07392L55.759 19.1392C55.7184 19.2343 55.7021 19.338 55.7114 19.441C55.7207 19.544 55.7554 19.6431 55.8124 19.7293C55.8694 19.8156 55.947 19.8864 56.038 19.9354C56.1291 19.9844 56.2309 20.01 56.3343 20.01H72.1234C72.2349 20.01 72.3444 19.9803 72.4405 19.9238C72.5366 19.8673 72.6159 19.7861 72.6701 19.6887C72.7243 19.5913 72.7515 19.4811 72.7488 19.3697C72.7462 19.2582 72.7137 19.1495 72.6549 19.0548L63.3175 3.99107C63.2571 3.89409 63.1714 3.81548 63.0696 3.76378C62.9677 3.71208 62.8537 3.68926 62.7398 3.6978C62.6259 3.70634 62.5165 3.74591 62.4235 3.81221C62.3305 3.87852 62.2574 3.96903 62.2122 4.07392ZM9.85343 3.99732L0.519106 19.0548C0.460296 19.1495 0.427878 19.2582 0.42521 19.3697C0.422542 19.4811 0.449721 19.5913 0.503933 19.6887C0.558144 19.7861 0.637415 19.8673 0.733536 19.9238C0.829657 19.9803 0.939131 20.01 1.05062 20.01H16.8397C16.9432 20.0098 17.045 19.984 17.1361 19.9349C17.2271 19.8857 17.3046 19.8147 17.3614 19.7283C17.4183 19.6418 17.4528 19.5426 17.4619 19.4395C17.4709 19.3364 17.4543 19.2327 17.4134 19.1377L10.9477 4.08018C10.9015 3.97789 10.8286 3.88994 10.7366 3.82556C10.6447 3.76117 10.5371 3.72272 10.4251 3.71425C10.3132 3.70577 10.2011 3.72758 10.1005 3.77739C9.99988 3.8272 9.91454 3.90317 9.85343 3.99732ZM58.0445 2.64872e-05H38.4332C38.3767 -0.000339558 38.3211 0.0151342 38.2728 0.0446979C38.2246 0.0742617 38.1856 0.116736 38.1602 0.167318C38.1348 0.217901 38.1241 0.274573 38.1293 0.330926C38.1344 0.38728 38.1552 0.441067 38.1894 0.486205L50.6831 17.1288C50.715 17.1716 50.7576 17.2052 50.8066 17.2262C50.8556 17.2472 50.9093 17.255 50.9622 17.2486C51.0152 17.2423 51.0655 17.2221 51.1082 17.1901C51.1509 17.1581 51.1843 17.1154 51.2052 17.0663L57.7835 1.71963L58.315 0.415858C58.3337 0.371107 58.3413 0.322482 58.3372 0.274148C58.333 0.225815 58.3172 0.179213 58.291 0.138335C58.2649 0.0974569 58.2293 0.0635207 58.1871 0.0394328C58.145 0.0153449 58.0977 0.00182338 58.0492 2.64872e-05H58.0445ZM33.9279 65.0323L19.9475 25.4048C19.9065 25.2898 19.8307 25.1902 19.7308 25.12C19.6309 25.0497 19.5116 25.0121 19.3894 25.0124H0.5832C0.474259 25.0121 0.36742 25.0424 0.274858 25.0999C0.182297 25.1573 0.107734 25.2396 0.059667 25.3374C0.0115995 25.4352 -0.00803976 25.5445 0.00298673 25.6528C0.0140132 25.7612 0.0552621 25.8643 0.122033 25.9504L33.8888 69.6924C34.0031 69.8405 34.1662 69.9432 34.3491 69.9824C34.5319 70.0216 34.7228 69.9948 34.8877 69.9066C35.0536 69.8193 35.1826 69.6753 35.2512 69.5008C35.3198 69.3264 35.3234 69.133 35.2614 68.9561L33.9279 65.0323ZM72.5877 25.0124H53.7815C53.66 25.0124 53.5414 25.0502 53.4423 25.1205C53.3431 25.1908 53.2683 25.2901 53.2281 25.4048L37.8767 68.8889C37.8122 69.0715 37.8149 69.271 37.8842 69.4518C37.9536 69.6326 38.085 69.7827 38.255 69.8754C38.4251 69.9675 38.6223 69.9962 38.8116 69.9564C39.0008 69.9166 39.1698 69.8108 39.2884 69.6581L73.0489 25.9504C73.1156 25.8643 73.1569 25.7612 73.1679 25.6528C73.1789 25.5445 73.1593 25.4352 73.1112 25.3374C73.0632 25.2396 72.9886 25.1573 72.896 25.0999C72.8035 25.0424 72.6966 25.0121 72.5877 25.0124ZM37.0857 7.33648L45.84 19.0095C45.9097 19.1024 45.9522 19.2128 45.9626 19.3285C45.973 19.4442 45.951 19.5604 45.8991 19.6643C45.8472 19.7682 45.7673 19.8555 45.6685 19.9166C45.5698 19.9776 45.4559 20.01 45.3398 20.01H27.8311C27.715 20.01 27.6011 19.9776 27.5024 19.9166C27.4036 19.8555 27.3237 19.7682 27.2718 19.6643C27.2199 19.5604 27.1979 19.4442 27.2083 19.3285C27.2187 19.2128 27.2612 19.1024 27.3309 19.0095L36.0852 7.33648C36.1434 7.25882 36.219 7.19579 36.3058 7.15237C36.3926 7.10896 36.4884 7.08636 36.5854 7.08636C36.6825 7.08636 36.7783 7.10896 36.8651 7.15237C36.9519 7.19579 37.0275 7.25882 37.0857 7.33648ZM35.9914 55.8465L25.408 25.8457C25.3748 25.7514 25.3646 25.6505 25.3784 25.5515C25.3922 25.4525 25.4295 25.3583 25.4872 25.2767C25.545 25.1951 25.6214 25.1285 25.7102 25.0825C25.7989 25.0365 25.8974 25.0125 25.9974 25.0124H47.1735C47.2735 25.0125 47.372 25.0365 47.4607 25.0825C47.5495 25.1285 47.6259 25.1951 47.6837 25.2767C47.7414 25.3583 47.7787 25.4525 47.7925 25.5515C47.8063 25.6505 47.7961 25.7514 47.7629 25.8457L37.1748 55.8465C37.1316 55.9683 37.0518 56.0737 36.9462 56.1483C36.8407 56.2228 36.7147 56.2628 36.5854 56.2628C36.4562 56.2628 36.3302 56.2228 36.2247 56.1483C36.1191 56.0737 36.0393 55.9683 35.9961 55.8465H35.9914Z" fill="white"/>
</svg>
