<svg width="12" height="10" viewBox="0 0 12 10" fill="none" xmlns="http://www.w3.org/2000/svg">
<path d="M11.0722 4.30391L11.0684 4.30222L0.801708 0.0439167C0.715354 0.00777329 0.621388 -0.00640169 0.528215 0.0026597C0.435042 0.0117211 0.345568 0.0437363 0.267797 0.0958414C0.18563 0.149682 0.118137 0.223105 0.0713905 0.309506C0.0246443 0.395906 0.000111805 0.492573 1.31257e-07 0.590809V3.31421C4.57896e-05 3.44851 0.0469388 3.57858 0.132597 3.68201C0.218255 3.78544 0.337311 3.85575 0.469246 3.88082L6.0687 4.91619C6.0907 4.92036 6.11056 4.93208 6.12485 4.94933C6.13913 4.96657 6.14695 4.98827 6.14695 5.01066C6.14695 5.03306 6.13913 5.05475 6.12485 5.072C6.11056 5.08924 6.0907 5.10096 6.0687 5.10513L0.469486 6.1405C0.337588 6.16551 0.218539 6.23572 0.132843 6.33906C0.0471463 6.44239 0.00016828 6.57238 1.31257e-07 6.70663V9.43051C-6.37112e-05 9.52431 0.0231628 9.61667 0.0675954 9.69928C0.112028 9.7819 0.176277 9.85219 0.254575 9.90384C0.348761 9.96642 0.459295 9.99987 0.572374 10C0.650987 9.99993 0.728794 9.98416 0.801227 9.9536L11.0677 5.71958L11.0722 5.71741C11.2104 5.65802 11.3282 5.55942 11.4109 5.43381C11.4936 5.30819 11.5377 5.16108 11.5377 5.01066C11.5377 4.86024 11.4936 4.71313 11.4109 4.58751C11.3282 4.4619 11.2104 4.3633 11.0722 4.30391Z" fill="#8A2BE2"/>
</svg>
